<?xml version="1.0" standalone="no"?>
<!DOCTYPE svg PUBLIC "-//W3C//DTD SVG 20010904//EN"
 "http://www.w3.org/TR/2001/REC-SVG-20010904/DTD/svg10.dtd">
<svg version="1.0" xmlns="http://www.w3.org/2000/svg"
 width="516.000000pt" height="516.000000pt" viewBox="0 0 516.000000 516.000000"
 preserveAspectRatio="xMidYMid meet">
<metadata>
Created by potrace 1.14, written by Peter Selinger 2001-2017
</metadata>
<g transform="translate(0.000000,516.000000) scale(0.100000,-0.100000)"
fill="#000000" stroke="none">
<path d="M3835 5007 c-50 -20 -84 -48 -108 -86 -17 -29 -29 -37 -57 -39 -69
-6 -133 -17 -215 -36 -156 -36 -380 -156 -494 -264 -8 -8 -24 -11 -35 -8 -133
33 -173 38 -296 40 -176 1 -240 -8 -373 -55 l-79 -28 -56 46 c-187 152 -452
255 -684 266 -21 1 -29 8 -33 28 -9 39 -64 99 -109 120 -153 69 -334 -61 -293
-211 20 -76 91 -134 177 -146 75 -11 168 36 214 108 12 18 24 25 39 23 12 -2
42 -6 67 -9 43 -6 59 -9 125 -22 132 -26 365 -142 454 -225 l24 -22 -29 -15
c-94 -49 -242 -186 -312 -288 -84 -125 -141 -264 -167 -406 -28 -159 -5 -398
50 -523 8 -17 19 -44 25 -60 16 -41 77 -142 117 -192 18 -23 33 -45 33 -49 0
-4 -25 -31 -56 -60 l-56 -52 -72 24 c-230 80 -495 90 -733 30 -447 -114 -780
-443 -879 -871 -29 -126 -25 -359 9 -487 79 -300 264 -541 542 -705 119 -71
251 -118 440 -159 49 -10 316 -13 365 -4 25 5 65 11 90 15 46 7 116 26 183 51
l39 15 61 -60 c34 -33 98 -88 142 -122 44 -34 82 -66 85 -69 19 -24 218 -182
285 -226 258 -168 442 -185 690 -65 95 47 288 182 380 266 22 21 72 63 110 94
39 31 72 58 75 61 3 3 22 20 42 38 l36 34 83 -18 c129 -28 401 -26 533 4 118
27 260 80 339 127 32 19 61 35 63 35 3 0 40 26 82 59 153 116 269 256 347 416
175 359 140 771 -95 1103 -101 143 -277 293 -430 367 -30 14 -66 32 -80 39
-47 25 -200 70 -275 81 -11 1 -42 6 -70 10 -94 14 -297 8 -378 -10 -12 -3 -33
-7 -47 -9 -14 -3 -39 -8 -56 -11 -27 -6 -38 0 -102 55 -42 37 -69 67 -65 74 4
6 20 30 36 53 46 69 97 189 124 292 35 135 37 336 4 465 -77 299 -271 542
-544 682 l-38 19 28 23 c154 124 371 216 558 237 33 4 64 8 69 9 5 0 19 -19
32 -43 40 -74 96 -111 177 -116 95 -6 176 43 210 126 31 75 -5 172 -81 216
-50 29 -141 39 -187 20z"/>
</g>
</svg>
